<svg xmlns="http://www.w3.org/2000/svg" viewBox="0 0 512 512" width="512" height="512">
  <path fill="#D70000" d="M256 20L480 140v232L256 492 32 372V140z"/>
  <path fill="#8B0000" d="M256 20l224 120-224 120L32 140z"/>
  <path fill="#5A0000" d="M480 140v232l-224 120V260z"/>
  <ellipse cx="256" cy="140" rx="20" ry="12" fill="#FFFFFF"/>
  <ellipse cx="100" cy="220" rx="16" ry="10" fill="#FFFFFF"/>
  <ellipse cx="160" cy="195" rx="16" ry="10" fill="#FFFFFF"/>
  <ellipse cx="160" cy="245" rx="16" ry="10" fill="#FFFFFF"/>
  <ellipse cx="100" cy="270" rx="16" ry="10" fill="#FFFFFF"/>
  <ellipse cx="130" cy="245" rx="16" ry="10" fill="#FFFFFF"/>
  <ellipse cx="380" cy="210" rx="16" ry="10" fill="#FFFFFF"/>
  <ellipse cx="420" cy="240" rx="16" ry="10" fill="#FFFFFF"/>
  <ellipse cx="380" cy="270" rx="16" ry="10" fill="#FFFFFF"/>
</svg>
